<?xml version="1.0" standalone="no"?><!DOCTYPE svg PUBLIC "-//W3C//DTD SVG 1.1//EN" "http://www.w3.org/Graphics/SVG/1.1/DTD/svg11.dtd"><svg t="1492075766917" class="icon" style="" viewBox="0 0 1024 1024" version="1.1" xmlns="http://www.w3.org/2000/svg" p-id="13139" xmlns:xlink="http://www.w3.org/1999/xlink" width="48" height="48"><defs><style type="text/css"></style></defs><path d="M512 102.56c-226.144 0-409.44 183.296-409.44 409.44s183.296 409.44 409.44 409.44 409.44-183.296 409.44-409.44c0-226.144-183.296-409.44-409.44-409.44zM512 136.672c206.944 0 375.328 168.352 375.328 375.328 0 91.04-32.608 174.624-86.752 239.68-37.408-15.616-125.76-46.272-180.416-62.432-4.672-1.472-5.408-1.696-5.408-21.12 0-16.032 6.592-32.16 13.024-45.824 6.976-14.848 15.232-39.808 18.208-62.208 8.288-9.632 19.584-28.64 26.848-64.832 6.368-31.904 3.392-43.52-0.832-54.4-0.448-1.152-0.896-2.272-1.248-3.424-1.6-7.488 0.608-46.336 6.048-76.512 3.776-20.704-0.96-64.704-29.472-101.088-17.984-23.008-52.416-51.232-115.296-55.168l-34.496 0.032c-61.824 3.904-96.256 32.128-114.24 55.136-28.48 36.384-33.216 80.416-29.44 101.088 5.504 30.176 7.648 69.024 6.112 76.384-0.32 1.28-0.8 2.4-1.28 3.552-4.192 10.912-7.2 22.496-0.8 54.4 7.232 36.192 18.528 55.2 26.848 64.832 2.944 22.4 11.2 47.36 18.208 62.208 5.088 10.848 7.488 25.632 7.488 46.528 0 19.424-0.736 19.648-5.088 21.024-56.544 16.704-146.528 49.216-180.096 63.904-55.2-65.344-88.576-149.728-88.576-241.76 0-206.944 168.352-375.328 375.328-375.328zM249.952 780.352c38.432-15.68 115.008-43.008 165.344-57.856 29.248-9.216 29.248-33.856 29.248-53.664 0-16.416-1.12-40.608-10.72-61.056-6.592-14.016-14.144-38.048-15.808-56.832-0.352-4.384-2.432-8.48-5.76-11.36-4.832-4.224-14.656-19.712-20.928-50.976-4.96-24.736-2.848-30.144-0.832-35.392 0.864-2.24 1.696-4.448 2.368-6.912 4.096-14.976-0.48-64.16-5.44-91.456-2.176-11.872 0.576-45.568 22.752-73.952 19.904-25.44 50.016-39.616 88.448-42.08l32.352-0.032c39.456 2.496 69.568 16.672 89.504 42.112 22.208 28.384 24.896 62.08 22.72 73.984-4.928 27.264-9.536 76.48-5.44 91.424 0.704 2.496 1.504 4.704 2.368 6.944 2.048 5.216 4.128 10.656-0.8 35.392-6.272 31.264-16.128 46.752-20.96 50.976-3.296 2.912-5.376 6.976-5.76 11.36-1.632 18.816-9.152 42.816-15.744 56.832-7.552 16.064-16.256 37.472-16.256 60.352 0 19.808 0 44.448 29.568 53.76 48.16 14.24 125.12 40.672 165.76 56.64-67.872 67.2-161.12 108.8-263.936 108.8-101.856 0-194.336-40.864-262.016-106.944z" p-id="13140" fill="#ffffff"></path></svg>