<?xml version="1.0" standalone="no"?><!DOCTYPE svg PUBLIC "-//W3C//DTD SVG 1.1//EN" "http://www.w3.org/Graphics/SVG/1.1/DTD/svg11.dtd"><svg t="1491895550902" class="icon" style="" fill="#A9B0BC" viewBox="0 0 1024 1024" version="1.1" xmlns="http://www.w3.org/2000/svg" p-id="1875" xmlns:xlink="http://www.w3.org/1999/xlink" width="48" height="48"><defs><style type="text/css"></style></defs><path d="M511.034511 919.119301c-56.107879 0-110.546745-10.993378-161.805176-32.674167-49.501414-20.936845-93.952812-50.906413-132.122133-89.075735-38.168298-38.168298-68.137867-82.620719-89.074711-132.12111-21.680788-51.259454-32.674167-105.698321-32.674167-161.806199 0-56.107879 10.993378-110.546745 32.674167-161.806199 20.936845-49.500391 50.906413-93.952812 89.074711-132.12111 38.169321-38.168298 82.620719-68.137867 132.122133-89.074711 51.258431-21.680788 105.698321-32.673144 161.805176-32.673144 56.107879 0 110.546745 10.993378 161.805176 32.673144 49.501414 20.936845 93.952812 50.906413 132.122133 89.074711 38.168298 38.168298 68.137867 82.620719 89.074711 132.12111 21.681812 51.259454 32.674167 105.698321 32.674167 161.806199 0 56.107879-10.992355 110.546745-32.674167 161.806199-20.936845 49.500391-50.906413 93.952812-89.074711 132.12111-38.169321 38.169321-82.620719 68.13889-132.12111 89.075735C621.581256 908.125923 567.142389 919.119301 511.034511 919.119301zM511.034511 125.628232c-208.327746 0-377.812835 169.486112-377.812835 377.813858s169.486112 377.813858 377.812835 377.813858c208.327746 0 377.813858-169.487136 377.813858-377.813858S719.362256 125.628232 511.034511 125.628232z" p-id="1876"></path><path d="M441.79045 323.709613l37.708833 0 0 255.262708-37.708833 0 0-255.262708Z" p-id="1877"></path><path d="M441.79045 541.263487l255.262708 0 0 37.708833-255.262708 0 0-37.708833Z" p-id="1878"></path></svg>