<?xml version="1.0" encoding="UTF-8"?>
<svg width="99px" height="67px" viewBox="0 0 99 67" version="1.1" xmlns="http://www.w3.org/2000/svg" xmlns:xlink="http://www.w3.org/1999/xlink">
    <!-- Generator: Sketch 39.1 (31720) - http://www.bohemiancoding.com/sketch -->
    <title>Combined Shape</title>
    <desc>Created with Sketch.</desc>
    <defs>
        <linearGradient x1="100%" y1="100%" x2="0%" y2="0%" id="linearGradient-1">
            <stop stop-color="#0089FF" offset="0%"></stop>
            <stop stop-color="#02DEF2" offset="100%"></stop>
        </linearGradient>
    </defs>
    <g id="logo" stroke="none" stroke-width="1" fill="none" fill-rule="evenodd">
        <path d="M0,3.18261719 L8.296875,3.18261719 L8.296875,19.9204102 L19.0103073,19.9204102 L19.0103073,27.9868164 L8.296875,27.9868164 L8.296875,44.7246094 L0,44.7246094 L0,3.18261719 Z M38.7724609,35.6673467 L38.7724609,3.24023438 L30.4755859,3.24023438 L30.4755859,44.7246094 L38.7724609,44.7246094 L38.7724609,44.2437281 C39.2822994,42.4908595 40.3314703,41.6144375 41.92,41.6144375 C42.7706709,41.6144375 43.4763305,41.8851015 44.037,42.4264375 C44.5976695,42.9677735 44.878,43.6830997 44.878,44.5724375 C44.878,45.7324433 44.4430043,46.8730986 43.573,47.9944375 C42.7029956,49.1157764 41.098345,50.6044282 38.759,52.4604375 C36.419655,54.3164468 34.486341,56.423759 32.959,58.7824375 C31.431659,61.141116 30.668,63.5964247 30.668,66.1484375 L53.404,66.1484375 L53.404,59.8264375 L40.876,59.8264375 C41.3400023,58.9757666 42.673989,57.6804462 44.878,55.9404375 C47.9713488,53.5044253 50.0593279,51.5227785 51.142,49.9954375 C52.2246721,48.4680965 52.766,46.6991142 52.766,44.6884375 C52.766,41.8657567 51.8283427,39.5941128 49.953,37.8734375 C48.0776573,36.1527622 45.5546825,35.2924375 42.384,35.2924375 C41.0712478,35.2924375 39.8674018,35.417407 38.7724609,35.6673467 Z M73.9394531,0 L74.2714844,0 C81.6204795,0 87.8958073,3.01038656 93.0976562,9.03125 C96.4622564,13.5468976 98.1445312,18.4609109 98.1445312,23.7734375 L98.1445312,24.1054688 C98.1445312,31.4544638 95.0677391,37.6965889 88.9140625,42.8320312 C84.442686,46.1523604 79.5397402,47.8125 74.2050781,47.8125 L73.8730469,47.8125 C66.5683229,47.8125 60.3151302,44.8242486 55.1132812,38.8476562 C53.298168,36.3020706 52.0253943,33.9668075 51.2949219,31.8417969 C50.4316363,29.1855336 50,26.5846481 50,24.0390625 L50,23.7070312 C50,16.4908493 52.9771838,10.3151298 58.9316406,5.1796875 C62.9603066,2.30206895 66.634749,0.686199687 69.9550781,0.33203125 C70.9733124,0.110675977 72.3014241,0 73.9394531,0 Z M59.5625,23.8398438 C59.5625,28.0013229 61.1894369,31.6536301 64.4433594,34.796875 C67.3431135,37.2760541 70.3867028,38.515625 73.5742188,38.515625 L74.5039062,38.515625 C77.0716274,38.515625 79.6835805,37.6412848 82.3398438,35.8925781 C85.0846491,33.8782451 86.9440055,31.3105625 87.9179688,28.1894531 C88.2278661,27.3704386 88.4492181,25.9648537 88.5820312,23.9726562 C88.5820312,19.8997192 86.9993648,16.30275 83.8339844,13.1816406 C80.8678237,10.5475129 77.61395,9.23046875 74.0722656,9.23046875 C69.932922,9.23046875 66.2584796,10.957014 63.0488281,14.4101562 C61.698561,16.1809984 60.8463559,17.6861917 60.4921875,18.9257812 C59.8723927,20.6523524 59.5625,22.2903568 59.5625,23.8398438 Z" id="Combined-Shape" fill="url(#linearGradient-1)"></path>
    </g>
</svg>